# xmcd CD database file
#
# Track frame offsets:
#	150
#	24178
#	45714
#	69252
#	88523
#	114214
#	130748
#	152876
#	177229
#	202474
#	228212
#	269363
#	285496
#
# Disc length: 4150 seconds
#
# Revision: 0
# Processed by: cddbd v1.5.2PL0 Copyright (c) Steve Scherf et al.
# Submitted via: CDex 1.70beta2
#
DISCID=aa10340d
DTITLE=Lucinda Williams - West
DYEAR=2007
DGENRE=Country
TTITLE0=Are You Alright_
TTITLE1=Mama You Sweet
TTITLE2=Learning How To Live
TTITLE3=Fancy Funeral
TTITLE4=Unsuffer Me
TTITLE5=Everything Has Changed
TTITLE6=Come On
TTITLE7=Where Is My Love
TTITLE8=Rescue
TTITLE9=What If
TTITLE10=Wrap My Head Around That
TTITLE11=Words
TTITLE12=West
EXTD=YEAR: 2007
EXTT0=
EXTT1=
EXTT2=
EXTT3=
EXTT4=
EXTT5=
EXTT6=
EXTT7=
EXTT8=
EXTT9=
EXTT10=
EXTT11=
EXTT12=
PLAYORDER=
